  0
SECTION
  2
HEADER
  9
$ACADVER
  1
AC1009
  9
$INSBASE
 10
0.0
 20
0.0
 30
0.0
  9
$EXTMIN
 10
0.0
 20
0.0
 30
0.0
  9
$EXTMAX
 10
0.0
 20
0.0
 30
0.0
  0
ENDSEC
  0
SECTION
  2
TABLES
  0
TABLE
  2
VPORT
 70
0
  0
ENDTAB
  0
TABLE
  2
LTYPE
 70
1
  0
LTYPE
  2
CONTINUOUS
 70
0
  3
Solid line
 72
65
 73
0
 40
0.0
  0
ENDTAB
  0
TABLE
  2
LAYER
 70
1
  0
LAYER
  2
0
 70
64
 62
7
  6
continuous
  0
ENDTAB
  0
TABLE
  2
STYLE
 70
1
  0
STYLE
  2
STANDARD
 70
0
 40
0
 41
1.0
 50
0.0
 71
0
 42
1
 3
ARIAL.TTF
 4

  0
ENDTAB
  0
TABLE
  2
VIEW
 70
0
  0
ENDTAB
  0
ENDSEC
  0
SECTION
  2
BLOCKS
  0
BLOCK
  8
0
  2
FACEFEAT
 70
0
 10
0.0
 20
0.0
 30
0.0
  3
FACEFEAT
  0
LINE
  8
0
 62
0
 10
132.397363502419
 20
-136.340584770663
 30
0.0
 11
167.888363546597
 21
-136.340584770663
 31
0.0
  0
LINE
  8
0
 62
0
 10
132.397363502419
 20
-136.328211922325
 30
0.0
 11
132.397363502419
 21
-136.340584770663
 31
0.0
  0
LINE
  8
0
 62
0
 10
132.354443732257
 20
-136.328211922325
 30
0.0
 11
132.397363502419
 21
-136.328211922325
 31
0.0
  0
LINE
  8
0
 62
0
 10
132.354443732257
 20
-136.28243508881
 30
0.0
 11
132.354443732257
 21
-136.328211922325
 31
0.0
  0
LINE
  8
0
 62
0
 10
132.319710906038
 20
-136.282378250082
 30
0.0
 11
132.354443732257
 21
-136.28243508880973
 31
0.0
  0
LINE
  8
0
 62
0
 10
132.319617029308
 20
-136.339744139038
 30
0.0
 11
132.31971090603793
 21
-136.282378250082
 31
0.0
  0
LINE
  8
0
 62
0
 10
132.319329980396
 20
-132.12341541209
 30
0.0
 11
132.31961702930832
 21
-136.339744139038
 31
0.0
  0
LINE
  8
0
 62
0
 10
132.314682333587
 20
-132.123415687572
 30
0.0
 11
132.319329980396
 21
-132.12341541209022
 31
0.0
  0
LINE
  8
0
 62
0
 10
132.35640884964
 20
-79.7927856330238
 30
0.0
 11
132.31468233358675
 21
-132.123415687572
 31
0.0
  0
LINE
  8
0
 62
0
 10
132.397363502419
 20
-77.5860871228364
 30
0.0
 11
132.35640884963993
 21
-79.7927856330238
 31
0.0
  0
LINE
  8
0
 62
0
 10
134.604180849234
 20
-77.5468
 30
0.0
 11
132.397363502419
 21
-77.58608712283639
 31
0.0
  0
LINE
  8
0
 62
0
 10
165.64222926253
 20
-77.5468
 30
0.0
 11
134.604180849234
 21
-77.5468
 31
0.0
  0
LINE
  8
0
 62
0
 10
167.844975599392
 20
-77.5860871228364
 30
0.0
 11
165.64222926253
 21
-77.54680000000003
 31
0.0
  0
LINE
  8
0
 62
0
 10
167.888363546597
 20
-77.5860871228364
 30
0.0
 11
167.844975599392
 21
-77.5860871228364
 31
0.0
  0
LINE
  8
0
 62
0
 10
167.888363546597
 20
-79.7028182376791
 30
0.0
 11
167.888363546597
 21
-77.5860871228364
 31
0.0
  0
LINE
  8
0
 62
0
 10
167.89
 20
-79.7945707375773
 30
0.0
 11
167.88836354659725
 21
-79.7028182376791
 31
0.0
  0
LINE
  8
0
 62
0
 10
167.89
 20
-135.340586109654
 30
0.0
 11
167.89
 21
-79.7945707375773
 31
0.0
  0
LINE
  8
0
 62
0
 10
167.888363546597
 20
-136.340584770663
 30
0.0
 11
167.8899999999997
 21
-135.340586109654
 31
0.0
  0
ENDBLK
  0
ENDSEC
  0
SECTION
  2
ENTITIES
  0
INSERT
  2
FACEFEAT
  8
0
 62
0
 10
0.0
 20
0.0
 30
0.0
  0
ENDSEC
  0
EOF
